{
  "asset": {
    "version": "2.0",
    "generator": "gltfeditor.com"
  },
  "buffers": [
    {
      "uri": "data:application/octet-stream;base64,",
      "byteLength": 848628
    }
  ],
  "bufferViews": [
    {
      "buffer": 0,
      "byteOffset": 0,
      "byteLength": 289188,
      "byteStride": 12,
      "target": 34962
    },
    {
      "buffer": 0,
      "byteOffset": 289188,
      "byteLength": 192792,
      "byteStride": 8,
      "target": 34962
    },
    {
      "buffer": 0,
      "byteOffset": 481980,
      "byteLength": 366648,
      "target": 34963
    }
  ],
  "accessors": [
    {
      "bufferView": 0,
      "byteOffset": 0,
      "componentType": 5126,
      "normalized": false,
      "count": 24099,
      "min": [
        -0.05252644792199135,
        -0.01958094909787178,
        -0.05250000208616257
      ],
      "max": [
        0.05252644792199135,
        0.01958094909787178,
        0.05250000208616257
      ],
      "type": "VEC3"
    },
    {
      "bufferView": 1,
      "byteOffset": 0,
      "componentType": 5126,
      "normalized": false,
      "count": 24099,
      "min": [
        0.0004132231406401843,
        0.0004138946533203125
      ],
      "max": [
        0.9995867609977722,
        0.9995861053466797
      ],
      "type": "VEC2"
    },
    {
      "bufferView": 2,
      "byteOffset": 0,
      "componentType": 5125,
      "normalized": false,
      "count": 91662,
      "min": [
        0
      ],
      "max": [
        24098
      ],
      "type": "SCALAR"
    }
  ],
  "scene": 0,
  "scenes": [
    {
      "nodes": [
        1
      ],
      "name": "tinyhawk"
    }
  ],
  "nodes": [
    {
      "name": "geometry_0",
      "extensions": {
        "KHR_node_visibility": {
          "visible": true
        }
      },
      "mesh": 0
    },
    {
      "name": "world",
      "children": [
        0
      ],
      "extensions": {
        "KHR_node_visibility": {
          "visible": true
        }
      }
    }
  ],
  "meshes": [
    {
      "primitives": [
        {
          "material": 0,
          "mode": 4,
          "attributes": {
            "POSITION": 0,
            "TEXCOORD_0": 1
          },
          "indices": 2
        }
      ]
    }
  ],
  "materials": [
    {
      "name": "",
      "pbrMetallicRoughness": {
        "baseColorFactor": [
          1,
          1,
          1,
          1
        ],
        "metallicFactor": 1,
        "roughnessFactor": 1,
        "baseColorTexture": {
          "index": 0,
          "texCoord": 0
        }
      },
      "emissiveFactor": [
        0,
        0,
        0
      ],
      "alphaMode": "OPAQUE",
      "doubleSided": false
    }
  ],
  "textures": [
    {
      "sampler": 0,
      "name": "base.jpg",
      "source": 0
    }
  ],
  "samplers": [
    {
      "magFilter": 9729,
      "minFilter": 9987,
      "wrapS": 10497,
      "wrapT": 10497
    }
  ],
  "images": [
    {
      "uri": "data:image/jpeg;base64,",
      "mimeType": "image/jpeg",
      "name": "base.jpg"
    }
  ],
  "extensionsUsed": [
    "KHR_node_visibility"
  ]
}